# xmcd
#
# Track frame offsets: 
#        150
#        14237
#        28455
#        40662
#        53630
#        67747
#        81717
#        95337
#        108310
#        120182
#        133607
#        147120
#        158625
#        170940
#        185082
#        198870
#        211960
#        226180
#        240465
#        252692
#        266307
#        278940
#        291375
#        304777
#        316985
#        331282
#
# Disc length: 4613 seconds
#
# Revision: 0
# Processed by: cddbd v1.5.2PL0 Copyright (c) Steve Scherf et al.
# Submitted via: ExactAudioCopyFreeDBPlugin 1.0
#
DISCID=7e12031a
DTITLE=Various Artist - Barrelhouse Women Vol. 2
DYEAR=1996
DGENRE=Blues
TTITLE0=Sodarisa Miller - Hot Springs Water Blues
TTITLE1=Sodarisa Miller - Hot Springs Water Blues
TTITLE2=Sodarisa Miller - Who'll Drive My Blues Away
TTITLE3=Sodarisa Miller - Broadway Daddy Blues
TTITLE4=Sodarisa Miller - Down by the River Blues
TTITLE5=Sodarisa Miller - Don't Dog Me 'Round
TTITLE6=Sodarisa Miller - Confession Blues
TTITLE7=Sodarisa Miller - Nobody Knows
TTITLE8=Sodarisa Miller - Sunshine Special (Out Side Man Blues)
TTITLE9=Sodarisa Miller - Be Yourself
TTITLE10=Sodarisa Miller - Fightin' Blues
TTITLE11=Sodarisa Miller - Midnight Special
TTITLE12=Sodarisa Miller - Reckless Don't Care Mama Blues
TTITLE13=Sodarisa Miller - Lonesome Room Blues
TTITLE14=Sodarisa Miller - I Keeps My Kitchen Clean
TTITLE15=Alice Pearson - Memphis Earthquake
TTITLE16=Alice Pearson - Black Sow Blues
TTITLE17=Alice Pearson - Greenville Levee Blues
TTITLE18=Alice Pearson - Third St. Blues
TTITLE19=Alice Pearson - Greyhound Blues
TTITLE20=Mattie Dorsey - Oh, Wasn't It Nice
TTITLE21=Mattie Dorsey - Mattie Blues
TTITLE22=Mattie Dorsey - Stingaree Blues
TTITLE23=Mattie Dorsey - Love Me Daddy Blues
TTITLE24=Star Page - Georgia Blues
TTITLE25=Star Page - I Ain't Puttin' Out
EXTD=
EXTT0=
EXTT1=
EXTT2=
EXTT3=
EXTT4=
EXTT5=
EXTT6=
EXTT7=
EXTT8=
EXTT9=
EXTT10=
EXTT11=
EXTT12=
EXTT13=
EXTT14=
EXTT15=
EXTT16=
EXTT17=
EXTT18=
EXTT19=
EXTT20=
EXTT21=
EXTT22=
EXTT23=
EXTT24=
EXTT25=
PLAYORDER=
